<?xml version="1.0" standalone="no"?>
<!DOCTYPE svg PUBLIC "-//W3C//DTD SVG 20010904//EN"
 "http://www.w3.org/TR/2001/REC-SVG-20010904/DTD/svg10.dtd">
<svg version="1.0" xmlns="http://www.w3.org/2000/svg"
 width="260.000000pt" height="260.000000pt" viewBox="0 0 260.000000 260.000000"
 preserveAspectRatio="xMidYMid meet">
<metadata>
Created by potrace 1.11, written by Peter Selinger 2001-2013
</metadata>
<g transform="translate(0.000000,260.000000) scale(0.100000,-0.100000)"
fill="#000000" stroke="none">
<path d="M1105 2586 c-294 -49 -534 -174 -737 -382 -176 -181 -290 -397 -345
-654 -25 -119 -25 -382 0 -500 59 -273 179 -493 376 -683 186 -179 392 -289
651 -344 119 -25 381 -25 500 0 259 55 465 165 651 344 197 190 317 410 376
683 25 118 25 381 0 500 -55 259 -165 465 -344 651 -188 194 -409 316 -678
375 -98 21 -350 27 -450 10z m155 -187 c0 -93 -1 -100 -17 -93 -25 11 -89 8
-124 -6 -23 -10 -29 -19 -29 -41 0 -30 -6 -34 -34 -23 -23 9 -20 40 6 58 22
15 20 16 -30 16 -38 0 -52 -4 -52 -14 0 -8 5 -16 12 -18 21 -7 0 -38 -26 -38
-13 0 -26 -5 -28 -11 -2 -6 -17 -9 -33 -7 l-30 3 38 36 c20 19 37 42 37 51 0
18 101 115 154 147 40 25 83 38 129 40 l27 1 0 -101z m230 63 c61 -35 143
-114 195 -187 40 -56 125 -215 125 -233 0 -40 -114 -66 -350 -79 l-119 -6 0
272 -1 273 53 -7 c28 -4 72 -19 97 -33z m-579 -59 c-75 -93 -78 -96 -85 -85
-13 21 -79 13 -111 -13 l-30 -25 33 0 c22 0 32 -5 32 -15 0 -8 9 -15 20 -15
11 0 20 -5 20 -10 0 -23 -32 -21 -86 5 -32 15 -67 25 -80 22 -13 -2 -24 -1
-24 2 0 20 289 171 328 171 8 0 2 -15 -17 -37z m854 0 c128 -53 329 -190 319
-217 -3 -7 -23 -20 -45 -29 -44 -17 -52 -44 -19 -65 32 -20 24 -29 -42 -45
-66 -17 -78 -13 -78 26 0 9 -4 17 -9 17 -5 0 -21 26 -36 57 -30 67 -121 204
-164 250 -51 52 -41 53 74 6z m-525 -167 c9 -12 4 -19 -32 -37 l-43 -23 45
-11 c37 -9 46 -15 48 -36 2 -19 -3 -28 -23 -37 -38 -18 -45 -15 -45 17 0 26
-4 30 -40 36 -52 9 -70 -6 -70 -56 0 -35 -3 -40 -36 -54 -20 -8 -38 -24 -41
-35 -3 -11 -14 -20 -24 -20 -14 0 -19 7 -19 30 0 26 -4 30 -28 30 -32 0 -72
32 -72 58 0 12 24 30 73 55 81 42 87 43 87 22 0 -8 6 -15 13 -15 19 1 44 24
40 38 -3 7 4 12 15 12 10 0 27 9 37 20 22 24 96 28 115 6z m-572 -33 c-2 -13
-13 -18 -37 -18 -37 0 -54 20 -24 28 42 11 65 7 61 -10z m0 -65 c-5 -15 -68
-24 -68 -9 0 12 18 19 48 20 15 1 22 -4 20 -11z m1542 -108 c0 -5 -8 -10 -17
-10 -15 0 -16 2 -3 10 19 12 20 12 20 0z m-1037 -67 c-7 -2 -19 -2 -25 0 -7 3
-2 5 12 5 14 0 19 -2 13 -5z m-897 -69 c-10 -14 -20 -23 -23 -20 -3 3 2 17 11
32 10 14 20 23 23 20 3 -3 -2 -17 -11 -32z m592 5 c2 -5 12 -9 23 -9 23 0 25
-25 3 -34 -27 -10 -34 -7 -34 19 0 23 -4 25 -45 25 -41 0 -54 7 -40 22 9 8 89
-12 93 -23z m992 5 c14 -35 12 -55 -2 -53 -7 1 -25 1 -40 0 -33 -1 -45 -34
-31 -78 9 -25 15 -29 63 -33 69 -6 81 -30 15 -30 -66 0 -105 -25 -105 -67 0
-29 -8 -39 -62 -79 -43 -32 -63 -53 -63 -68 0 -11 6 -20 13 -18 7 1 12 -8 12
-23 0 -14 -4 -25 -10 -25 -5 0 -10 -20 -10 -45 l0 -45 -150 0 -150 0 2 268 3
267 135 7 c74 4 182 16 240 26 58 11 111 20 118 21 7 0 17 -11 22 -25z m-1039
-46 c-23 -37 -51 -49 -51 -22 0 24 29 54 53 54 19 0 19 -1 -2 -32z m129 22 c0
-5 -4 -10 -10 -10 -5 0 -10 5 -10 10 0 6 5 10 10 10 6 0 10 -4 10 -10z m1237
-22 c18 -18 33 -42 33 -53 0 -24 32 -59 43 -48 4 3 7 14 7 24 0 19 33 43 44
32 3 -3 6 -15 6 -26 0 -31 29 -57 65 -57 28 0 33 -4 43 -39 18 -59 17 -61 -39
-61 -36 0 -58 6 -76 20 -30 24 -83 27 -83 6 0 -24 -13 -26 -65 -9 -91 27 -95
30 -95 64 0 31 -1 32 -40 26 -39 -5 -40 -4 -50 31 -16 61 -13 72 19 72 16 0
34 7 41 15 11 13 15 12 34 -8 12 -13 36 -32 54 -42 38 -23 40 -33 10 -44 -14
-5 -18 -10 -10 -15 18 -11 54 4 49 19 -3 7 -1 17 5 23 7 7 -2 17 -31 31 -22
12 -41 25 -41 30 0 5 -3 16 -6 25 -12 30 47 19 83 -16z m-1073 7 c-4 -8 -1
-15 5 -15 6 0 11 7 11 15 0 8 7 15 15 15 8 0 15 -4 15 -10 0 -5 9 -10 20 -10
11 0 20 5 20 11 0 6 12 9 28 7 l27 -3 0 -265 0 -265 -265 0 c-265 0 -265 0
-268 22 -2 15 -13 24 -33 28 -31 7 -35 15 -18 46 7 15 7 24 -1 34 -8 10 -9 35
-5 80 l7 65 44 0 c37 0 44 -3 44 -20 0 -16 26 -40 44 -40 3 0 6 19 8 42 3 39
8 46 55 78 29 19 52 42 53 51 0 19 88 104 125 121 14 6 25 15 25 20 0 4 11 8
25 8 18 0 23 -4 19 -15z m-154 -15 c12 -7 12 -12 2 -22 -14 -14 -42 -2 -50 20
-4 14 27 16 48 2z m-62 -27 c-2 -11 -14 -19 -31 -21 -30 -4 -36 12 -9 27 26
16 44 13 40 -6z m1480 -8 c16 -34 15 -35 -8 -35 -16 0 -20 7 -20 30 0 37 13
39 28 5z m-2152 -123 c20 -10 24 -18 24 -57 0 -75 52 -157 82 -127 7 7 4 20
-12 42 -13 18 -26 50 -30 71 -6 34 -5 39 11 39 14 0 19 -7 19 -29 0 -17 15
-51 35 -81 23 -34 33 -59 30 -71 -4 -10 2 -32 11 -48 14 -23 29 -33 63 -40 25
-5 58 -7 74 -4 15 3 27 1 27 -5 0 -6 3 -17 6 -26 5 -14 -18 -16 -224 -16 -141
0 -233 4 -237 10 -15 24 27 245 68 355 20 55 22 58 25 29 2 -22 11 -35 28 -42z
m359 -129 c-2 -21 -7 -59 -10 -85 -5 -42 -9 -48 -29 -48 -57 0 -49 107 13 158
25 20 31 14 26 -25z m-11 -406 c8 -131 29 -264 62 -395 15 -57 25 -104 23
-106 -2 -1 -69 -24 -149 -50 l-145 -47 -30 35 c-111 132 -206 382 -230 604
l-7 62 235 0 234 0 7 -103z m228 87 c5 -3 8 -20 8 -39 0 -26 -7 -38 -29 -54
-24 -17 -29 -29 -34 -77 -6 -56 -5 -59 33 -104 22 -26 43 -57 47 -69 5 -11 33
-35 63 -53 l55 -33 0 -54 0 -55 -99 -16 -98 -16 -10 26 c-31 79 -69 300 -83
479 l-7 84 73 -7 c41 -4 77 -10 81 -12z m458 -60 c0 -47 -4 -73 -10 -69 -5 3
-10 21 -10 38 -1 45 -21 67 -62 67 -32 0 -58 14 -58 32 0 4 32 8 70 8 l70 0 0
-76z m464 45 c26 -30 26 -30 98 -23 40 3 78 11 85 16 27 22 36 3 34 -68 -5
-153 -71 -484 -97 -484 -6 0 -65 9 -131 20 -65 11 -173 23 -240 27 -68 3 -123
10 -123 14 0 4 9 6 20 4 10 -2 30 5 43 15 20 16 25 32 31 90 5 56 12 79 36
112 36 49 37 64 7 72 -13 3 -29 17 -37 31 -11 21 -20 25 -62 25 l-48 0 0 90 0
90 179 0 179 0 26 -31z m345 -87 c-2 -52 2 -66 38 -127 l41 -70 -24 -47 c-24
-47 -22 -86 5 -103 6 -3 11 -29 11 -56 0 -38 6 -58 25 -83 26 -35 35 -92 13
-82 -7 2 -64 21 -125 42 -62 20 -113 41 -113 46 0 5 9 45 20 89 33 127 70 365
70 445 0 2 9 4 21 4 18 0 20 -5 18 -58z m-519 -512 c130 -14 247 -32 261 -41
9 -5 0 -34 -34 -103 -78 -162 -162 -267 -271 -338 -50 -32 -67 -38 -113 -38
l-53 0 0 265 0 265 58 0 c31 0 100 -5 152 -10z m-597 -24 c14 -11 16 -22 11
-59 -5 -36 -2 -51 13 -74 15 -21 18 -40 15 -75 -5 -54 16 -96 77 -160 28 -31
42 -38 72 -38 48 0 57 14 23 36 -23 16 -25 22 -20 56 5 29 3 38 -8 38 -7 0
-19 7 -26 15 -10 13 -10 19 4 33 20 23 20 32 1 32 -8 0 -15 7 -15 15 0 8 6 15
13 15 28 0 115 49 122 69 18 58 25 6 25 -189 l0 -210 -53 0 c-46 0 -63 6 -113
38 -76 50 -158 138 -216 232 -53 85 -104 197 -94 207 5 5 76 20 146 32 3 0 13
-6 23 -13z m-253 -47 c0 -43 127 -261 211 -361 17 -21 28 -38 24 -38 -16 0
-177 71 -226 100 -131 78 -291 211 -274 229 13 13 213 80 243 81 12 0 22 -5
22 -11z m1364 -35 c54 -18 100 -35 102 -37 3 -2 -25 -32 -61 -65 -71 -67 -180
-144 -260 -185 -59 -29 -177 -78 -181 -74 -2 1 23 35 55 74 70 89 123 177 159
266 31 78 20 77 186 21z"/>
</g>
</svg>
